<mxfile host="app.diagrams.net" modified="2023-09-19T03:09:15.630Z" agent="Mozilla/5.0 (Macintosh; Intel Mac OS X 10_15_7) AppleWebKit/537.36 (KHTML, like Gecko) Chrome/117.0.0.0 Safari/537.36" version="21.7.1" etag="llVV7xJzxn6ohabXiC4c" type="github">
  <diagram name="第 1 页" id="moSzSVIBymdvrBb0sHtN">
    <mxGraphModel>
      <root>
        <mxCell id="0" />
        <mxCell id="1" parent="0" />
      </root>
    </mxGraphModel>
  </diagram>
</mxfile>
